<svg xmlns="http://www.w3.org/2000/svg" xmlns:xlink="http://www.w3.org/1999/xlink" xml:space="preserve" width="13.3072in" height="2.56278in" version="1.1" shape-rendering="geometricPrecision" text-rendering="geometricPrecision" image-rendering="optimizeQuality" fill-rule="evenodd" clip-rule="evenodd" viewBox="0 0 131187 25265">
 <g id="Layer_x0020_1">
  <metadata id="CorelCorpID_0Corel-Layer" fill="#000000"/>
  <g id="_1543538574208">
   <g>
    <path fill="#058FCE" d="M12168 29c-3178,283 -5787,2336 -6660,5251 -100,333 -6,383 -333,481 -4807,1434 -7095,7609 -3202,11939 709,789 1793,1494 2852,1896 789,300 492,28 799,831 1026,2685 3900,5175 7852,4801 1805,-171 3471,-1003 4412,-1920 552,-538 972,-965 1430,-1736 193,-325 375,-689 521,-1064 362,-928 -12,-610 750,-871 2774,-948 5415,-3774 5014,-7683 -306,-2982 -2517,-5470 -5210,-6254 -396,-115 -224,-137 -461,-779 -587,-1589 -1632,-2795 -2772,-3563 -1280,-863 -3008,-1504 -4993,-1327z"/>
    <path fill="#FEFEFE" d="M2102 12375c0,2179 1066,3621 2307,4472 2214,1518 5236,1301 7163,-626 335,-336 337,-509 1074,-557 521,-33 986,132 1317,360 1988,1369 300,4405 -1983,3478 -304,-123 -403,-259 -616,-370 -216,73 -484,236 -731,343 -845,367 -1782,567 -2730,614 75,537 1231,1651 1842,2036 3599,2266 8548,-55 8547,-4572 0,-2842 -2561,-5239 -5387,-5238 -1626,1 -2988,536 -4068,1598 -290,285 -322,578 -1238,579 -944,1 -1613,-596 -1884,-1218 -557,-1275 404,-2104 475,-2269 -579,-1228 -878,-1720 -974,-3271 -440,-89 -3112,1793 -3112,4641z"/>
    <path fill="#FEFEFE" d="M16327 11396c357,-356 587,-768 1401,-910 1303,-228 2540,790 2419,2148 -83,943 -655,1194 -874,1496 196,472 375,621 665,1443 187,529 314,1151 366,1765 847,-197 2014,-1323 2508,-2114 2109,-3374 -189,-7817 -4302,-8104 -1645,-115 -3295,516 -4255,1515 -678,705 -1780,801 -2588,313 -1831,-1107 -843,-3971 1403,-3672 934,124 1213,692 1459,892 525,-200 962,-412 1567,-567 690,-177 1154,-201 1885,-264 -1,-328 -550,-1158 -722,-1382 -2588,-3373 -7906,-2733 -9545,1134 -463,1093 -551,2408 -166,3614 255,799 657,1436 1189,2018 846,926 517,445 2206,35 613,-149 1252,-218 1918,-208 644,9 1282,101 1869,253 303,78 553,162 808,260 270,104 551,270 788,335z"/>
   </g>
   <path fill="#ffffff" fill-rule="nonzero" stroke="#373435" stroke-width="29.575" d="M31673 13610c651,0 1338,-105 1952,-479 884,-549 1154,-1356 1154,-2034 0,-1110 -528,-1917 -2013,-2980l-344 -245c-1019,-736 -1301,-1145 -1301,-1683 0,-701 552,-1204 1461,-1204 798,0 1154,351 1338,573 258,304 319,666 319,771 0,140 37,210 123,210 98,0 135,-93 135,-351 0,-912 49,-1251 49,-1403 0,-82 -61,-117 -172,-140 -319,-82 -835,-199 -1632,-199 -1706,0 -2835,923 -2835,2209 0,947 466,1765 1817,2770l565 421c1019,760 1203,1297 1203,1870 0,619 -540,1332 -1645,1332 -761,0 -1485,-316 -1755,-1180 -61,-199 -110,-444 -110,-596 0,-93 -12,-199 -123,-199 -98,0 -135,129 -147,304 -12,187 -61,888 -61,1531 0,257 37,316 233,397 528,222 1080,304 1792,304zm7971 -2665c49,0 86,12 110,70l835 1999c49,117 -25,210 -98,222 -110,12 -135,47 -135,105 0,70 123,70 319,82 908,23 1694,23 2074,23 405,0 466,-23 466,-105 0,-70 -49,-105 -147,-105 -123,0 -246,-12 -405,-35 -196,-47 -503,-173 -921,-1069 -687,-1502 -2492,-5569 -2749,-6118 -110,-222 -160,-316 -319,-316 -110,0 -196,117 -319,397l-2823 6253c-221,503 -405,806 -896,877 -98,0 -221,12 -319,12 -86,0 -123,47 -123,105 0,82 61,105 196,105 565,0 1142,-35 1252,-35 344,0 847,35 1203,35 110,0 172,-23 172,-105 0,-58 -25,-105 -160,-105l-160 0c-331,0 -430,-105 -430,-280 0,-117 49,-362 160,-608l577 -1332c25,-58 37,-70 98,-70l2541 0zm-2320 -549c-37,0 -61,-23 -37,-70l1043 -2513c12,-35 25,-93 61,-93 25,0 37,58 49,93l1019 2525c12,35 0,58 -49,58l-2087 0zm6989 1286c0,164 0,573 -37,993 -25,292 -110,479 -331,526 -98,23 -233,35 -381,35 -123,0 -172,58 -172,105 0,82 86,105 233,105 405,0 1129,-35 1399,-35 295,0 1019,35 1694,35 147,0 233,-35 233,-105 0,-47 -61,-105 -184,-105 -147,0 -381,-12 -540,-35 -319,-47 -417,-234 -442,-526 -25,-421 -25,-830 -25,-993l0 -795c0,-327 -25,-631 135,-993 196,-421 1743,-2782 2099,-3179 233,-269 331,-362 565,-467 160,-70 356,-117 466,-117 123,0 209,-47 209,-117 0,-58 -74,-82 -196,-82 -209,0 -921,23 -1154,23 -319,0 -700,-23 -1056,-23 -123,0 -184,23 -184,93 0,82 98,93 196,117 184,35 233,129 233,222 0,129 -49,304 -160,526 -160,304 -1473,2431 -1608,2665 -184,-280 -1596,-2606 -1792,-2910 -86,-140 -135,-257 -135,-339 0,-82 61,-129 147,-152 172,-47 245,-47 245,-129 0,-70 -61,-93 -160,-93 -491,0 -994,23 -1227,23 -356,0 -1166,-23 -1350,-23 -135,0 -209,23 -209,93 0,70 74,105 160,105 135,0 319,58 454,129 209,105 430,339 700,701 381,526 1853,2712 1927,2863 147,292 245,503 245,1040l0 818zm6424 0c0,164 0,573 -37,993 -25,292 -110,479 -331,526 -98,23 -233,35 -381,35 -123,0 -172,58 -172,105 0,82 86,105 233,105 405,0 1129,-35 1399,-35 295,0 1019,35 1694,35 147,0 233,-35 233,-105 0,-47 -61,-105 -184,-105 -147,0 -381,-12 -540,-35 -319,-47 -417,-234 -442,-526 -25,-421 -25,-830 -25,-993l0 -795c0,-327 -25,-631 135,-993 196,-421 1743,-2782 2099,-3179 233,-269 331,-362 565,-467 160,-70 356,-117 466,-117 123,0 209,-47 209,-117 0,-58 -74,-82 -196,-82 -209,0 -921,23 -1154,23 -319,0 -700,-23 -1056,-23 -123,0 -184,23 -184,93 0,82 98,93 196,117 184,35 233,129 233,222 0,129 -49,304 -160,526 -160,304 -1473,2431 -1608,2665 -184,-280 -1596,-2606 -1792,-2910 -86,-140 -135,-257 -135,-339 0,-82 61,-129 147,-152 172,-47 246,-47 246,-129 0,-70 -61,-93 -160,-93 -491,0 -994,23 -1227,23 -356,0 -1166,-23 -1350,-23 -135,0 -209,23 -209,93 0,70 74,105 160,105 135,0 319,58 454,129 209,105 430,339 700,701 381,526 1853,2712 1927,2863 147,292 245,503 245,1040l0 818zm5258 -1122c0,958 0,1753 -49,2162 -37,292 -98,432 -319,479 -98,23 -221,35 -381,35 -135,0 -172,58 -172,105 0,70 74,105 209,105 430,0 1166,-35 1412,-35 295,0 1031,35 1743,35 123,0 209,-35 209,-105 0,-47 -49,-105 -172,-105 -160,0 -405,-12 -552,-35 -319,-47 -393,-199 -430,-468 -49,-421 -49,-1215 -49,-2174l0 -1753c0,-1508 0,-1788 25,-2104 25,-351 110,-491 405,-538 123,-23 209,-35 319,-35 110,0 172,-23 172,-117 0,-58 -86,-82 -221,-82 -417,0 -1117,23 -1387,23 -307,0 -1043,-23 -1448,-23 -172,0 -258,23 -258,82 0,93 61,117 172,117 135,0 270,12 393,47 233,70 344,187 368,526 12,316 12,596 12,2104l0 1753zm4178 0c0,912 0,1695 -49,2115 -37,292 -98,479 -319,526 -98,23 -221,35 -381,35 -135,0 -172,58 -172,105 0,70 74,105 209,105 221,0 491,-12 749,-23 258,0 491,-12 614,-12 270,0 663,23 1092,58 430,23 896,58 1289,58 1988,0 3130,-701 3621,-1169 614,-573 1178,-1519 1178,-2770 0,-1180 -479,-2010 -1019,-2525 -1178,-1134 -2995,-1134 -4345,-1134 -651,0 -1424,23 -1755,23 -307,0 -994,-23 -1559,-23 -160,0 -246,23 -246,93 0,70 74,105 184,105 160,0 344,12 430,35 344,93 442,199 466,538 12,316 12,596 12,2104l0 1753zm1448 -1905c0,-783 0,-1601 12,-1940 0,-117 37,-164 135,-199 86,-47 442,-70 663,-70 847,0 2025,105 3020,947 479,397 1007,1215 1007,2478 0,1029 -221,1917 -921,2466 -651,514 -1375,678 -2357,678 -847,0 -1277,-210 -1412,-397 -86,-105 -110,-456 -123,-701 -12,-199 -25,-958 -25,-2010l0 -1251zm10561 2373c0,1017 786,2583 3412,2583 1682,0 2504,-713 2909,-1064 1056,771 1497,900 2897,900l945 0c270,0 368,-35 368,-105 0,-93 -61,-105 -172,-105 -245,0 -921,-187 -1313,-409 -331,-187 -884,-503 -1706,-1145 700,-783 1203,-1870 1203,-2770 0,-140 -184,-210 -417,-234 -687,-70 -1178,-82 -1473,-82 -98,0 -196,23 -196,117 0,70 74,93 147,93 184,0 442,35 601,175 184,152 233,362 233,538 0,713 -344,1473 -589,1800 -233,-199 -1743,-1496 -2160,-1952 -982,-1040 -2038,-1975 -2038,-3074 0,-993 798,-1332 1313,-1332 687,0 1117,245 1362,526 270,304 356,678 356,982 0,175 12,222 86,222 74,0 123,-23 147,-199 37,-175 135,-1110 135,-1496 0,-140 0,-234 -209,-304 -331,-129 -884,-245 -1485,-245 -2136,0 -2995,1227 -2983,2151 12,526 110,1005 626,1660 -736,339 -2001,1403 -2001,2770zm3830 1847c-1277,0 -2357,-935 -2357,-2396 0,-935 430,-1484 847,-1777 209,292 994,1134 1313,1461 319,327 1497,1426 2209,2010 -258,234 -1068,701 -2013,701zm11641 736c651,0 1338,-105 1952,-479 884,-549 1154,-1356 1154,-2034 0,-1110 -528,-1917 -2013,-2980l-344 -245c-1019,-736 -1301,-1145 -1301,-1683 0,-701 552,-1204 1461,-1204 798,0 1154,351 1338,573 258,304 319,666 319,771 0,140 37,210 123,210 98,0 135,-93 135,-351 0,-912 49,-1251 49,-1403 0,-82 -61,-117 -172,-140 -319,-82 -835,-199 -1633,-199 -1706,0 -2835,923 -2835,2209 0,947 466,1765 1817,2770l565 421c1019,760 1203,1297 1203,1870 0,619 -540,1332 -1645,1332 -761,0 -1485,-316 -1755,-1180 -61,-199 -110,-444 -110,-596 0,-93 -12,-199 -123,-199 -98,0 -135,129 -147,304 -12,187 -61,888 -61,1531 0,257 37,316 233,397 528,222 1080,304 1792,304zm6240 -4441c-37,0 -74,-12 -74,-70l0 -210c0,-1508 0,-1870 25,-2186 25,-351 110,-491 405,-538 123,-23 221,-35 307,-35 135,0 196,-35 196,-105 0,-70 -74,-93 -221,-93 -430,0 -1178,23 -1436,23 -295,0 -1007,-23 -1583,-23 -147,0 -233,23 -233,93 0,70 74,105 184,105 160,0 344,12 430,35 344,93 442,199 466,538 12,316 12,596 12,2104l0 1753c0,912 0,1695 -49,2115 -37,292 -98,479 -319,526 -98,23 -221,35 -381,35 -135,0 -172,58 -172,105 0,70 74,105 209,105 430,0 1142,-35 1387,-35 307,0 1056,35 1755,35 135,0 221,-35 221,-105 0,-47 -49,-105 -172,-105 -160,0 -405,-12 -552,-35 -319,-47 -381,-234 -417,-514 -49,-432 -61,-1192 -61,-2104l0 -760c0,-47 37,-58 74,-58l4075 0c25,0 61,23 61,58l0 760c0,912 0,1671 -49,2092 -37,292 -98,479 -319,526 -98,23 -221,35 -393,35 -123,0 -172,58 -172,105 0,70 86,105 233,105 417,0 1178,-35 1424,-35 295,0 1007,35 1706,35 135,0 221,-35 221,-105 0,-47 -61,-105 -172,-105 -172,0 -405,-12 -552,-35 -331,-47 -393,-234 -430,-514 -49,-432 -49,-1216 -49,-2127l0 -1753c0,-1508 0,-1788 25,-2104 25,-351 110,-491 393,-538 135,-23 233,-35 319,-35 123,0 196,-35 196,-105 0,-70 -74,-93 -233,-93 -417,0 -1129,23 -1387,23 -282,0 -1043,-23 -1620,-23 -160,0 -233,23 -233,93 0,70 61,105 184,105 147,0 331,12 417,35 344,93 442,199 466,538 12,316 25,678 25,2186l0 210c0,58 -37,70 -61,70l-4075 0zm11309 1777c49,0 86,12 110,70l835 1999c49,117 -25,210 -98,222 -110,12 -135,47 -135,105 0,70 123,70 319,82 908,23 1694,23 2074,23 405,0 466,-23 466,-105 0,-70 -49,-105 -147,-105 -123,0 -245,-12 -405,-35 -196,-47 -503,-173 -921,-1069 -687,-1502 -2492,-5569 -2750,-6118 -110,-222 -160,-316 -319,-316 -110,0 -196,117 -319,397l-2823 6253c-221,503 -405,806 -896,877 -98,0 -221,12 -319,12 -86,0 -123,47 -123,105 0,82 61,105 196,105 565,0 1142,-35 1252,-35 344,0 847,35 1203,35 110,0 172,-23 172,-105 0,-58 -25,-105 -160,-105l-160 0c-331,0 -430,-105 -430,-280 0,-117 49,-362 160,-608l577 -1332c25,-58 37,-70 98,-70l2541 0zm-2320 -549c-37,0 -61,-23 -37,-70l1043 -2513c12,-35 25,-93 61,-93 25,0 37,58 49,93l1019 2525c12,35 0,58 -49,58l-2087 0zm6989 1286c0,164 0,573 -37,993 -25,292 -110,479 -331,526 -98,23 -233,35 -381,35 -123,0 -172,58 -172,105 0,82 86,105 233,105 405,0 1129,-35 1399,-35 295,0 1019,35 1694,35 147,0 233,-35 233,-105 0,-47 -61,-105 -184,-105 -147,0 -381,-12 -540,-35 -319,-47 -417,-234 -442,-526 -25,-421 -25,-830 -25,-993l0 -795c0,-327 -25,-631 135,-993 196,-421 1743,-2782 2099,-3179 233,-269 331,-362 565,-467 160,-70 356,-117 466,-117 123,0 209,-47 209,-117 0,-58 -74,-82 -196,-82 -209,0 -921,23 -1154,23 -319,0 -700,-23 -1056,-23 -123,0 -184,23 -184,93 0,82 98,93 196,117 184,35 233,129 233,222 0,129 -49,304 -160,526 -160,304 -1473,2431 -1608,2665 -184,-280 -1596,-2606 -1792,-2910 -86,-140 -135,-257 -135,-339 0,-82 61,-129 147,-152 172,-47 245,-47 245,-129 0,-70 -61,-93 -160,-93 -491,0 -994,23 -1227,23 -356,0 -1166,-23 -1350,-23 -135,0 -209,23 -209,93 0,70 74,105 160,105 135,0 319,58 454,129 209,105 430,339 700,701 380,526 1853,2712 1927,2863 147,292 245,503 245,1040l0 818zm6670 -2875c0,-1508 0,-1788 12,-2104 25,-351 110,-491 405,-538 135,-23 196,-35 307,-35 86,0 147,-35 147,-105 0,-70 -74,-93 -233,-93 -356,0 -1129,23 -1387,23 -258,0 -945,-23 -1510,-23 -160,0 -246,23 -246,93 0,70 74,105 184,105 160,0 344,12 430,35 344,93 442,199 466,538 12,316 12,596 12,2104l0 1753c0,912 0,1695 -49,2115 -37,292 -98,479 -319,526 -98,23 -221,35 -381,35 -135,0 -172,58 -172,105 0,70 74,105 209,105 430,0 1117,-35 1363,-35 270,0 1043,35 1645,35 123,0 209,-35 209,-105 0,-47 -61,-105 -147,-105 -135,0 -381,-12 -528,-35 -270,-47 -368,-234 -393,-514 -25,-432 -25,-1216 -25,-2127l0 -900 49 0 110 140c233,304 2308,2595 2774,2980 466,386 822,596 1399,643 233,23 430,23 749,23l945 0c196,0 258,-35 258,-105 0,-58 -61,-105 -147,-105 -123,0 -344,0 -663,-129 -577,-222 -994,-655 -1473,-1064 -417,-374 -2541,-2478 -2921,-2945 331,-362 1939,-1812 2283,-2115 454,-409 798,-619 1142,-736 196,-70 466,-117 626,-117 98,0 160,-35 160,-105 0,-70 -74,-93 -184,-93 -331,0 -933,23 -1264,23 -295,0 -884,-23 -1117,-23 -110,0 -172,23 -172,93 0,58 49,82 147,105 98,23 147,93 147,199 0,175 -233,409 -540,736 -319,339 -1890,1812 -2259,2186l-49 0 0 -444zm7701 362c-37,0 -74,-12 -74,-70l0 -210c0,-1508 0,-1870 25,-2186 25,-351 110,-491 405,-538 123,-23 221,-35 307,-35 135,0 196,-35 196,-105 0,-70 -74,-93 -221,-93 -430,0 -1178,23 -1436,23 -295,0 -1007,-23 -1583,-23 -147,0 -233,23 -233,93 0,70 74,105 184,105 160,0 344,12 430,35 344,93 442,199 466,538 12,316 12,596 12,2104l0 1753c0,912 0,1695 -49,2115 -37,292 -98,479 -319,526 -98,23 -221,35 -380,35 -135,0 -172,58 -172,105 0,70 74,105 209,105 430,0 1142,-35 1387,-35 307,0 1056,35 1755,35 135,0 221,-35 221,-105 0,-47 -49,-105 -172,-105 -160,0 -405,-12 -552,-35 -319,-47 -381,-234 -417,-514 -49,-432 -61,-1192 -61,-2104l0 -760c0,-47 37,-58 74,-58l4075 0c25,0 61,23 61,58l0 760c0,912 0,1671 -49,2092 -37,292 -98,479 -319,526 -98,23 -221,35 -393,35 -123,0 -172,58 -172,105 0,70 86,105 233,105 417,0 1178,-35 1424,-35 295,0 1007,35 1706,35 135,0 221,-35 221,-105 0,-47 -61,-105 -172,-105 -172,0 -405,-12 -552,-35 -331,-47 -393,-234 -430,-514 -49,-432 -49,-1216 -49,-2127l0 -1753c0,-1508 0,-1788 25,-2104 25,-351 110,-491 393,-538 135,-23 233,-35 319,-35 123,0 196,-35 196,-105 0,-70 -74,-93 -233,-93 -417,0 -1129,23 -1387,23 -282,0 -1043,-23 -1620,-23 -160,0 -233,23 -233,93 0,70 61,105 184,105 147,0 331,12 417,35 344,93 442,199 466,538 12,316 25,678 25,2186l0 210c0,58 -37,70 -61,70l-4075 0z"/>
   <path fill="#038CCD" fill-rule="nonzero" stroke="#058FCE" stroke-width="29.575" d="M30596 17638l618 0 1241 3236 -639 0 -252 -667 -1322 0 -258 667 -639 0 1249 -3236zm310 860l-437 1114 872 0 -435 -1114zm3016 -860l727 0c469,0 817,59 1045,175 228,116 416,306 563,569 147,262 221,569 221,919 0,249 -41,478 -124,687 -82,209 -197,382 -342,521 -145,137 -302,233 -472,286 -169,53 -463,79 -881,79l-738 0 0 -3236zm611 595l0 2042 285 0c281,0 484,-32 610,-97 127,-65 230,-174 310,-326 80,-152 121,-340 121,-564 0,-343 -96,-610 -287,-799 -172,-171 -449,-255 -830,-255l-208 0zm3270 -595l631 0 811 2299 827 -2299 629 0 -1164 3236 -592 0 -1141 -3236zm5896 -81c456,0 848,166 1176,497 329,331 493,735 493,1212 0,473 -162,872 -486,1199 -324,327 -717,491 -1179,491 -484,0 -887,-168 -1206,-504 -320,-336 -481,-735 -481,-1197 0,-309 75,-593 224,-853 149,-259 354,-465 615,-617 261,-152 543,-228 844,-228zm-9 604c-297,0 -547,104 -750,312 -203,208 -304,473 -304,794 0,358 127,641 383,849 198,163 425,244 682,244 290,0 537,-106 741,-317 204,-211 306,-471 306,-780 0,-308 -103,-569 -308,-782 -205,-213 -455,-320 -750,-320zm6211 45l-431 410c-293,-309 -621,-464 -988,-464 -308,0 -569,106 -780,317 -212,211 -317,471 -317,780 0,216 47,407 141,574 94,168 226,299 397,394 171,95 362,143 571,143 178,0 341,-33 489,-100 148,-67 311,-189 487,-364l417 437c-238,234 -463,396 -675,486 -212,91 -454,136 -726,136 -502,0 -913,-159 -1232,-479 -320,-318 -479,-728 -479,-1226 0,-323 73,-609 219,-860 145,-251 353,-452 625,-605 271,-152 563,-229 877,-229 266,0 522,56 769,169 246,113 459,273 637,480zm2509 -568l618 0 1241 3236 -639 0 -252 -667 -1322 0 -258 667 -639 0 1249 -3236zm310 860l-437 1114 872 0 -435 -1114zm2697 -860l1784 0 0 608 -589 0 0 2628 -624 0 0 -2628 -571 0 0 -608zm3191 0l1761 0 0 604 -1150 0 0 581 1150 0 0 595 -1150 0 0 852 1150 0 0 604 -1761 0 0 -3236zm5010 440l-455 403c-160,-222 -322,-334 -487,-334 -81,0 -147,22 -198,65 -52,44 -77,92 -77,146 0,54 18,106 55,154 50,65 201,203 452,415 234,197 377,321 427,372 124,126 213,246 265,361 52,116 78,241 78,377 0,266 -91,485 -275,658 -183,173 -422,259 -717,259 -230,0 -430,-56 -601,-169 -171,-113 -317,-291 -439,-533l517 -312c156,285 335,428 537,428 106,0 195,-31 267,-92 72,-62 108,-133 108,-213 0,-73 -27,-146 -82,-220 -54,-73 -174,-186 -359,-337 -352,-287 -579,-509 -681,-665 -103,-156 -154,-312 -154,-467 0,-225 85,-417 255,-577 171,-161 381,-241 631,-241 161,0 314,38 460,112 146,75 303,211 473,409zm4907 1523l367 419 -166 151 -165 149 517 554 -745 0 -213 -220c-339,201 -655,301 -946,301 -247,0 -447,-73 -601,-218 -153,-145 -229,-331 -229,-559 0,-172 43,-334 130,-487 86,-152 235,-310 445,-473 -207,-280 -310,-529 -310,-744 0,-159 69,-317 206,-473 138,-156 332,-234 582,-234 252,0 446,77 582,231 136,154 203,309 203,466 0,123 -31,241 -93,354 -62,113 -204,281 -428,502 261,309 430,502 506,578 46,-35 165,-134 357,-298zm-1167 -711c163,-140 244,-262 244,-370 0,-56 -18,-101 -55,-136 -37,-35 -85,-53 -145,-53 -55,0 -103,20 -142,59 -39,40 -58,86 -58,138 0,105 52,225 156,361zm368 1333c-114,-111 -274,-294 -480,-551 -218,180 -327,337 -327,473 0,63 30,121 89,174 60,53 135,79 226,79 131,0 295,-58 492,-174zm4068 -2585l611 0 0 2650 903 0 0 586 -1514 0 0 -3236zm2970 0l1761 0 0 604 -1150 0 0 581 1150 0 0 595 -1150 0 0 852 1150 0 0 604 -1761 0 0 -3236zm6299 529l-432 429c-273,-290 -592,-435 -956,-435 -317,0 -583,105 -797,316 -214,211 -321,467 -321,769 0,312 111,576 333,793 222,217 496,325 822,325 212,0 391,-45 536,-134 145,-89 263,-229 352,-420l-934 0 0 -577 1622 0 4 136c0,283 -73,551 -219,805 -147,253 -336,447 -568,581 -233,133 -506,200 -819,200 -335,0 -633,-73 -896,-219 -263,-146 -470,-354 -624,-623 -153,-270 -229,-561 -229,-874 0,-428 142,-801 424,-1117 335,-377 771,-566 1308,-566 281,0 544,52 788,156 206,88 408,240 606,454zm2761 -529l618 0 1241 3236 -639 0 -252 -667 -1322 0 -258 667 -639 0 1249 -3236zm310 860l-437 1114 872 0 -435 -1114zm3007 -860l611 0 0 2650 903 0 0 586 -1514 0 0 -3236zm7188 568l-431 410c-293,-309 -621,-464 -988,-464 -308,0 -569,106 -780,317 -212,211 -317,471 -317,780 0,216 47,407 141,574 94,168 226,299 397,394 171,95 362,143 571,143 178,0 341,-33 489,-100 148,-67 311,-189 487,-364l417 437c-238,234 -463,396 -675,486 -212,91 -454,136 -726,136 -502,0 -913,-159 -1232,-479 -320,-318 -479,-728 -479,-1226 0,-323 73,-609 219,-860 145,-251 353,-452 625,-605 271,-152 563,-229 877,-229 266,0 522,56 769,169 246,113 459,273 637,480zm3044 -649c456,0 848,166 1176,497 329,331 493,735 493,1212 0,473 -162,872 -486,1199 -324,327 -717,491 -1179,491 -484,0 -887,-168 -1206,-504 -320,-336 -481,-735 -481,-1197 0,-309 75,-593 224,-853 149,-259 354,-465 615,-617 261,-152 543,-228 844,-228zm-9 604c-297,0 -547,104 -750,312 -203,208 -304,473 -304,794 0,358 127,641 383,849 198,163 425,244 682,244 290,0 537,-106 741,-317 204,-211 306,-471 306,-780 0,-308 -103,-569 -308,-782 -205,-213 -455,-320 -750,-320zm3250 -523l582 0 1390 2130 0 -2130 611 0 0 3236 -587 0 -1385 -2123 0 2123 -611 0 0 -3236zm5997 440l-455 403c-160,-222 -322,-334 -487,-334 -81,0 -147,22 -198,65 -52,44 -77,92 -77,146 0,54 18,106 55,154 50,65 201,203 452,415 234,197 377,321 427,372 124,126 213,246 265,361 52,116 78,241 78,377 0,266 -91,485 -275,658 -183,173 -422,259 -717,259 -230,0 -430,-56 -601,-169 -171,-113 -317,-291 -439,-533l517 -312c156,285 335,428 537,428 106,0 195,-31 267,-92 72,-62 108,-133 108,-213 0,-73 -27,-146 -82,-220 -54,-73 -174,-186 -359,-337 -352,-287 -579,-509 -681,-665 -103,-156 -154,-312 -154,-467 0,-225 85,-417 255,-577 171,-161 381,-241 631,-241 161,0 314,38 460,112 146,75 303,211 473,409zm1605 -440l615 0 0 2094c0,180 16,308 47,382 31,75 83,134 156,180 73,44 160,67 262,67 109,0 201,-25 280,-75 79,-50 133,-113 162,-190 30,-77 45,-224 45,-441l0 -2016 615 0 0 1929c0,326 -18,551 -55,678 -37,126 -106,248 -210,365 -103,117 -222,204 -356,261 -134,56 -291,85 -469,85 -234,0 -437,-54 -610,-161 -174,-108 -297,-243 -372,-405 -74,-162 -112,-436 -112,-822l0 -1929zm3879 0l611 0 0 2650 903 0 0 586 -1514 0 0 -3236zm2651 0l1784 0 0 608 -589 0 0 2628 -624 0 0 -2628 -571 0 0 -608zm4172 0l618 0 1241 3236 -639 0 -252 -667 -1322 0 -258 667 -639 0 1249 -3236zm310 860l-437 1114 872 0 -435 -1114zm3016 -860l582 0 1390 2130 0 -2130 611 0 0 3236 -587 0 -1385 -2123 0 2123 -611 0 0 -3236zm3989 0l1784 0 0 608 -589 0 0 2628 -624 0 0 -2628 -571 0 0 -608zm4880 440l-455 403c-159,-222 -322,-334 -487,-334 -81,0 -147,22 -198,65 -52,44 -77,92 -77,146 0,54 18,106 55,154 50,65 201,203 452,415 234,197 377,321 427,372 124,126 213,246 265,361 52,116 78,241 78,377 0,266 -91,485 -275,658 -183,173 -422,259 -717,259 -230,0 -430,-56 -601,-169 -171,-113 -317,-291 -439,-533l517 -312c156,285 335,428 537,428 106,0 195,-31 267,-92 72,-62 108,-133 108,-213 0,-73 -27,-146 -82,-220 -54,-73 -174,-186 -359,-337 -352,-287 -579,-509 -681,-665 -103,-156 -154,-312 -154,-467 0,-225 85,-417 255,-577 171,-161 381,-241 631,-241 161,0 314,38 460,112 146,75 303,211 473,409z"/>
   <line fill="none" stroke="#373435" stroke-width="68.465" x1="29706" y1="15124" x2="131030" y2="15124"/>
  </g>
 </g>
</svg>